<?xml version="1.0" encoding="UTF-8" standalone="no"?>
<!-- Created with Inkscape (http://www.inkscape.org/) -->

<svg
   xmlns:dc="http://purl.org/dc/elements/1.1/"
   xmlns:cc="http://creativecommons.org/ns#"
   xmlns:rdf="http://www.w3.org/1999/02/22-rdf-syntax-ns#"
   xmlns:svg="http://www.w3.org/2000/svg"
   xmlns="http://www.w3.org/2000/svg"
   xmlns:sodipodi="http://sodipodi.sourceforge.net/DTD/sodipodi-0.dtd"
   xmlns:inkscape="http://www.inkscape.org/namespaces/inkscape"
   width="9.8586092mm"
   height="11.363186mm"
   viewBox="0 0 9.8586092 11.363186"
   version="1.1"
   id="svg5245"
   inkscape:version="0.92.5 (2060ec1f9f, 2020-04-08)">
  <defs
     id="defs5239" />
  <sodipodi:namedview
     id="base"
     pagecolor="#ffffff"
     bordercolor="#666666"
     borderopacity="1.0"
     inkscape:pageopacity="0.0"
     inkscape:pageshadow="2"
     inkscape:zoom="0.35"
     inkscape:cx="122.91616"
     inkscape:cy="-269.95484"
     inkscape:document-units="mm"
     inkscape:current-layer="layer1"
     showgrid="false"
     fit-margin-top="0"
     fit-margin-left="0"
     fit-margin-right="0"
     fit-margin-bottom="0"
     inkscape:window-width="1920"
     inkscape:window-height="1016"
     inkscape:window-x="0"
     inkscape:window-y="27"
     inkscape:window-maximized="1" />
  <metadata
     id="metadata5242">
    <rdf:RDF>
      <cc:Work
         rdf:about="">
        <dc:format>image/svg+xml</dc:format>
        <dc:type
           rdf:resource="http://purl.org/dc/dcmitype/StillImage" />
        <dc:title></dc:title>
      </cc:Work>
    </rdf:RDF>
  </metadata>
  <g
     inkscape:label="Layer 1"
     inkscape:groupmode="layer"
     id="layer1"
     transform="translate(60.869781,-66.044597)">
    <path
       style="fill:#42cba6;fill-opacity:1;stroke-width:0.01905045"
       d="m -56.659631,77.010868 c -0.758188,-0.438697 -2.251224,-1.301528 -3.438606,-1.987183 l -0.771544,-0.445529 V 71.72235 68.866544 l 0.219081,-0.126982 c 0.120494,-0.06984 0.750588,-0.434181 1.400208,-0.809645 0.649621,-0.375466 1.639767,-0.948327 2.200327,-1.273026 0.560559,-0.324699 1.041538,-0.598923 1.068844,-0.609389 0.04488,-0.0172 0.133476,0.02945 0.923946,0.48659 1.869772,1.081309 2.577348,1.489899 3.274663,1.890955 0.398155,0.228998 0.734634,0.429454 0.74773,0.445459 0.01881,0.02299 0.02381,0.620062 0.02381,2.842815 0,2.652496 -0.0019,2.815901 -0.03334,2.851864 -0.01834,0.02098 -0.419109,0.260705 -0.89061,0.53272 -1.275741,0.735995 -3.025095,1.747261 -3.539922,2.046359 -0.24956,0.144986 -0.463876,0.26357 -0.476259,0.263519 -0.01238,-4.1e-5 -0.331134,-0.178662 -0.708334,-0.396915 z m 1.617839,-0.79663 c 0.482773,-0.2793 1.447855,-0.837706 2.144628,-1.240899 0.696771,-0.403195 1.27317,-0.742617 1.280893,-0.754273 0.0077,-0.01166 0.01201,-1.144216 0.0095,-2.516801 l -0.0045,-2.495611 -0.781069,-0.452513 c -0.429589,-0.248882 -0.883942,-0.511646 -1.009673,-0.583921 -0.125734,-0.07227 -0.742968,-0.428693 -1.371634,-0.792042 -0.628668,-0.363348 -1.155886,-0.661584 -1.171604,-0.662749 -0.02258,-0.0017 -3.990103,2.279651 -4.272065,2.456438 l -0.07144,0.04479 v 2.502562 c 0,1.979026 0.005,2.506614 0.02381,2.521922 0.02493,0.02027 0.114827,0.07249 2.02411,1.175949 0.64962,0.375443 1.421164,0.822131 1.714542,0.992643 0.293375,0.170512 0.549905,0.310538 0.570062,0.311173 0.02016,6.09e-4 0.431648,-0.227369 0.914421,-0.50667 z m -2.055497,-0.731497 c -0.146026,-0.09421 -0.2719,-0.181646 -0.279721,-0.194299 -0.0078,-0.01266 -0.01422,-1.614472 -0.01424,-3.559595 -1.1e-5,-2.725297 0.0052,-3.543458 0.02289,-3.56653 0.02524,-0.03299 1.370974,-0.832028 1.425169,-0.846199 0.03057,-0.008 0.267249,0.127145 1.51695,0.866135 0.14916,0.0882 0.276254,0.168549 0.282434,0.178547 0.01277,0.02066 -0.313467,0.531522 -0.33943,0.531522 -0.0093,0 -0.338664,-0.192832 -0.731938,-0.428515 -0.393272,-0.235685 -0.720569,-0.425433 -0.72732,-0.421664 -0.0067,0.0038 -0.196588,0.107877 -0.421861,0.231354 -0.225272,0.123477 -0.415912,0.233928 -0.423651,0.245448 -0.0077,0.01152 -0.01203,0.651038 -0.0095,1.421153 l 0.0045,1.400208 1.085877,0.0095 1.085876,0.0095 v 0.352434 0.352433 l -1.085876,0.0095 -1.085877,0.0095 -0.0049,1.770841 c -0.0027,0.97396 -0.01141,1.777382 -0.0194,1.785379 -0.008,0.008 -0.134017,-0.06254 -0.280043,-0.156753 z m -1.036394,-0.597944 c -0.09824,-0.05639 -0.189579,-0.113999 -0.202973,-0.128019 -0.0134,-0.01402 -0.124684,-0.406977 -0.247312,-0.873235 -0.511374,-1.944393 -0.636201,-2.406232 -0.655604,-2.425635 -0.01456,-0.01456 -0.02045,0.375162 -0.02045,1.353874 0,0.907773 -0.0065,1.378369 -0.01931,1.38625 -0.01062,0.0066 -0.126349,-0.0493 -0.25718,-0.124132 l -0.237877,-0.136062 V 71.85368 69.769521 l 0.05139,-0.03378 c 0.02826,-0.01858 0.141853,-0.08668 0.252418,-0.15133 0.154294,-0.09022 0.206327,-0.112368 0.223817,-0.09525 0.01254,0.01226 0.160862,0.498085 0.329623,1.0796 0.332082,1.144297 0.339157,1.166659 0.364193,1.151187 0.0095,-0.0059 0.01684,-0.618635 0.01684,-1.406774 v -1.396365 l 0.299479,-0.172703 c 0.164713,-0.09499 0.306163,-0.168572 0.314333,-0.163524 0.0082,0.005 0.01485,1.448889 0.01485,3.208532 0,2.547089 -0.0048,3.199236 -0.02381,3.19878 -0.01309,-3.17e-4 -0.104192,-0.04671 -0.202434,-0.103099 z m 4.753818,-0.118671 c -0.0069,-0.0069 -0.01262,-1.180981 -0.01262,-2.608984 v -2.59637 l -0.17213,-0.110382 c -0.477905,-0.306466 -0.580263,-0.378871 -0.578015,-0.408862 0.0035,-0.04645 0.27454,-0.473232 0.299806,-0.472041 0.01194,6.17e-4 0.446053,0.269749 0.964702,0.598191 l 0.942999,0.597166 0.0052,0.344808 c 0.0041,0.274064 8.2e-5,0.344809 -0.01974,0.344809 -0.01371,0 -0.183218,-0.108332 -0.376677,-0.240737 -0.193459,-0.132404 -0.36671,-0.244841 -0.385003,-0.249858 -0.03149,-0.0086 -0.03352,0.10988 -0.0381,2.225828 l -0.0048,2.234948 -0.187096,0.110284 c -0.320661,0.189013 -0.425428,0.244254 -0.438481,0.2312 z"
       id="path5094-6"
       inkscape:connector-curvature="0" />
  </g>
</svg>
